<?xml version="1.0" encoding="utf-8"?>
<!-- Generator: Adobe Illustrator 17.0.0, SVG Export Plug-In . SVG Version: 6.00 Build 0)  -->
<!DOCTYPE svg PUBLIC "-//W3C//DTD SVG 1.1//EN" "http://www.w3.org/Graphics/SVG/1.1/DTD/svg11.dtd">
<svg version="1.1" xmlns="http://www.w3.org/2000/svg" xmlns:xlink="http://www.w3.org/1999/xlink" x="0px" y="0px"
	 width="319.087px" height="353.734px" viewBox="0 0 319.087 353.734" enable-background="new 0 0 319.087 353.734"
	 xml:space="preserve">
<g id="Warstwa_4">
</g>
<g id="Warstwa_3">
	<linearGradient id="SVGID_1_" gradientUnits="userSpaceOnUse" x1="159.5439" y1="51.7629" x2="159.5439" y2="319.7628">
		<stop  offset="0" style="stop-color:#FFD8AA"/>
		<stop  offset="0.4778" style="stop-color:#FAB786"/>
		<stop  offset="1" style="stop-color:#F38955"/>
	</linearGradient>
	<path fill="url(#SVGID_1_)" d="M299.887,73.925l-0.247-0.17L181.117,5.326C174.996,1.792,167.954,0,160.188,0
		c-10.072,0-17.816,3.016-18.666,3.359l-0.484,0.196L21.139,72.778C3.878,82.745,0.218,108.003,0.07,109.073L0,109.583v132.514
		c0,23.541,20.463,38.745,21.334,39.38l0.323,0.236l112.059,64.697c8.418,4.86,17.222,7.324,26.167,7.324
		c13.406,0,22.591-5.499,24.56-6.788l114.942-66.362c19.044-10.995,19.685-36.292,19.702-37.364l0.001-133.125
		C319.088,87.417,300.671,74.465,299.887,73.925z"/>
</g>
</svg>
