<?xml version="1.0" encoding="utf-8"?>
<!-- Generator: Adobe Illustrator 17.0.0, SVG Export Plug-In . SVG Version: 6.00 Build 0)  -->
<!DOCTYPE svg PUBLIC "-//W3C//DTD SVG 1.1//EN" "http://www.w3.org/Graphics/SVG/1.1/DTD/svg11.dtd">
<svg version="1.1" xmlns="http://www.w3.org/2000/svg" xmlns:xlink="http://www.w3.org/1999/xlink" x="0px" y="0px"
	 width="319.087px" height="353.734px" viewBox="0 0 319.087 353.734" enable-background="new 0 0 319.087 353.734"
	 xml:space="preserve">
<g id="Warstwa_4">
</g>
<g id="Warstwa_3">
	<linearGradient id="SVGID_1_" gradientUnits="userSpaceOnUse" x1="159.5439" y1="51.7629" x2="159.5439" y2="319.7628">
		<stop  offset="0" style="stop-color:#FFD8AA"/>
		<stop  offset="0.4778" style="stop-color:#FAB786"/>
		<stop  offset="1" style="stop-color:#F38955"/>
	</linearGradient>
	<path fill="url(#SVGID_1_)" d="M299.887,73.925l-0.247-0.17L181.117,5.326C174.996,1.792,167.954,0,160.188,0
		c-10.072,0-17.816,3.016-18.666,3.359l-0.484,0.196L21.139,72.778C3.878,82.745,0.218,108.003,0.07,109.073L0,109.583v132.514
		c0,23.541,20.463,38.745,21.334,39.38l0.323,0.236l112.059,64.697c8.418,4.86,17.222,7.324,26.167,7.324
		c13.406,0,22.591-5.499,24.56-6.788l114.942-66.362c19.044-10.995,19.685-36.292,19.702-37.364l0.001-133.125
		C319.088,87.417,300.671,74.465,299.887,73.925z M304.088,243.003c-0.032,0.869-0.857,18.042-12.203,24.592l-115.151,66.482
		l-0.51,0.323c-0.063,0.043-6.555,4.334-16.341,4.334c-6.278,0-12.559-1.788-18.667-5.314L29.933,269.17
		C27.904,267.563,15,256.756,15,242.096v-57.5h99.893v34.921c0,11.784,3.861,21.202,11.589,28.255
		c7.723,7.057,18.052,10.581,30.987,10.581c12.931,0,23.304-3.524,31.113-10.581c7.81-7.053,11.715-16.472,11.715-28.255v-45.558
		c0-1.548-0.843-2.326-2.52-2.326h-47.041c-1.681,0-2.52,0.778-2.52,2.326v9.767c0,1.552,0.839,2.326,2.52,2.326h30.666
		c0.669,0,1.008,0.313,1.008,0.93v32.767c0,7.289-2.268,13.139-6.803,17.558c-4.534,4.418-10.581,6.627-18.139,6.627
		c-7.393,0-13.396-2.246-18.013-6.744c-4.622-4.495-6.929-10.309-6.929-17.441v-89.301c0-7.129,2.307-12.943,6.929-17.442
		c4.617-4.495,10.62-6.744,18.013-6.744c7.558,0,13.604,2.209,18.139,6.628c4.535,4.418,6.803,10.272,6.803,17.558v10.465
		c0,1.551,0.838,2.326,2.519,2.326h12.849c1.677,0,2.52-0.774,2.52-2.326v-10c0-11.78-3.905-21.239-11.715-28.372
		c-7.81-7.129-18.183-10.698-31.113-10.698c-12.936,0-23.265,3.528-30.987,10.582c-7.728,7.057-11.589,16.475-11.589,28.255v38.915
		H15v-58.903c0.497-2.855,3.747-19.213,13.639-24.925l118.896-68.645c1.457-0.51,6.549-2.124,12.652-2.124
		c5.1,0,9.618,1.116,13.43,3.316l117.928,68.086c1.511,1.142,12.543,9.978,12.543,23.694V243.003z"/>
</g>
</svg>
